<?xml version="1.0" encoding="utf-8"?>
<!-- Generator: Adobe Illustrator 16.0.3, SVG Export Plug-In . SVG Version: 6.00 Build 0)  -->
<!DOCTYPE svg PUBLIC "-//W3C//DTD SVG 1.1//EN" "http://www.w3.org/Graphics/SVG/1.1/DTD/svg11.dtd">
<svg version="1.1" id="Capa_1" xmlns="http://www.w3.org/2000/svg" xmlns:xlink="http://www.w3.org/1999/xlink" x="0px" y="0px"
	 width="557px" height="234px" viewBox="115.55 31 557 234" enable-background="new 115.55 31 557 234" xml:space="preserve">
<g id="Text2">
	
		<text id="TexSecundary" transform="matrix(1 0 0 1 285.0098 189.7334)" fill="#fff" stroke="#fff" stroke-miterlimit="10" font-family="'JosefinSans-Bold'" font-size="35">soluciones financieras</text>
</g>
<g id="TextPrimary_1_">
	<g id="TextPrimary">
		<path id="p" fill="#fff" d="M316.94,102.136c-6.866-0.006-31.93,0-31.93,0v49.38h13.32v-21.37h20.62c0,0,5.28-0.21,5.28-5.919
			c0-5.71,0-16.6,0-16.6S323.913,102.142,316.94,102.136z M310.22,121.856h-11.81v-9.07h11.81V121.856z"/>
		<path id="r" fill="#fff" d="M326.815,102.13v49.384h13.339v-38.896l11.837,0.088v9.188h-9.806v8.568l9.806,21.054h13.958
			l-10.159-21.318l4.859-0.088c0,0,5.3-0.972,5.3-6.007s0-16.078,0-16.078s-0.619-5.87-5.831-5.895S326.815,102.13,326.815,102.13z"
			/>
		<path id="o" fill="#fff" d="M402.08,102.116c-4.95-0.01-26.68,0-26.68,0s-6.36,0.52-6.71,5.73v39.05c0,0,1.23,4.74,6.53,4.62
			c5.3-0.12,26.68,0,26.68,0s6.19-0.29,6.19-5.42c0-5.12,0-38.25,0-38.25S407.03,102.136,402.08,102.116z M394.05,140.796h-11.23
			v-28.09h11.23V140.796z"/>
		<polygon id="a" fill="#fff" points="428.756,102.111 410.823,151.514 424.251,151.514 436,118.802 443.244,140.887 
			432.467,140.887 432.555,151.514 460.293,151.514 443.421,102.111 		"/>
		<path id="c" fill="#fff" d="M463.475,106.081v40.901c0,0,0.973,4.559,3.976,4.532s31.184,0,31.184,0l3.975-10.804
			l-25.795,0.088l0.089-28.003h21.731l3.975-10.683h-34.806C467.803,102.111,463.475,102.37,463.475,106.081z"/>
		<polygon id="t" fill="#fff" points="505.083,102.111 505.083,112.441 517.98,112.441 517.98,151.514 531.231,151.514 
			531.231,112.441 544.217,112.353 544.217,102.111 		"/>
		<rect id="i" x="546.866" y="102.111" fill="#fff" width="13.251" height="49.402"/>
		<polygon id="v" fill="#fff" points="562.591,102.111 575.576,151.514 589.004,151.514 601.813,102.111 588.65,102.111 
			582.202,126.813 575.753,102.111 		"/>
		<path id="_x30_" fill="#fff" d="M637.08,102.116c-4.95-0.01-26.681,0-26.681,0s-6.359,0.52-6.709,5.73v39.05
			c0,0,1.229,4.74,6.529,4.62c5.301-0.12,26.68,0,26.68,0s6.19-0.29,6.19-5.42c0-5.12,0-38.25,0-38.25
			S642.03,102.136,637.08,102.116z M629.05,140.796h-11.23v-28.09h11.23V140.796z"/>
	</g>
</g>
<g id="Flor_1_">
	<g id="Flor">
		<g id="Capa_5">
			<polygon id="PetIzquier" opacity="0.6" fill="#61E1F2" enable-background="new    " points="215.215,138.16 208.386,178.746 
				201.501,219.264 172.333,192.979 143.218,166.756 150.106,126.176 156.994,85.594 186.104,111.876 			"/>
		</g>
		<g id="Capa_4">
			<polygon id="PetDerecho" opacity="0.7" fill="#29BBEF" enable-background="new    " points="259.609,166.756 230.44,193.047 
				201.323,219.264 194.441,178.746 187.613,138.16 216.722,111.876 245.892,85.589 252.722,126.176 			"/>
		</g>
		<g id="Capa_3">
			<polygon id="PetCentro" opacity="1" fill="#0C6C8E" enable-background="new    " points="239.65,148 220.533,183.66 
				201.414,219.32 182.296,183.66 163.176,148 182.296,112.276 201.414,76.68 220.533,112.34 			"/>
		</g>
	</g>
</g>
</svg>
